<svg width="24" height="24" viewBox="0 0 24 24" fill="none" xmlns="http://www.w3.org/2000/svg">
  <path d="M5 18C6.65685 18 8 16.6569 8 15C8 13.3431 6.65685 12 5 12C3.34315 12 2 13.3431 2 15C2 16.6569 3.34315 18 5 18Z" stroke="#fe480b" stroke-width="2" stroke-linejoin="round"/>
  <path d="M19 18C20.6569 18 22 16.6569 22 15C22 13.3431 20.6569 12 19 12C17.3431 12 16 13.3431 16 15C16 16.6569 17.3431 18 19 18Z" stroke="#fe480b" stroke-width="2" stroke-linejoin="round"/>
  <path d="M14 15H9" stroke="#fe480b" stroke-width="2" stroke-linecap="round" stroke-linejoin="round"/>
  <path d="M17 15H19" stroke="#fe480b" stroke-width="2" stroke-linecap="round" stroke-linejoin="round"/>
  <path d="M5 15H7" stroke="#fe480b" stroke-width="2" stroke-linecap="round" stroke-linejoin="round"/>
  <path d="M7.5 12.5L9 8H15L17.5 12.5" stroke="#fe480b" stroke-width="2" stroke-linecap="round" stroke-linejoin="round"/>
  <path d="M12 8V15" stroke="#fe480b" stroke-width="2" stroke-linecap="round"/>
  <path d="M15 8L13 5H10" stroke="#fe480b" stroke-width="2" stroke-linecap="round" stroke-linejoin="round"/>
</svg>
